<!-- icon666.com - MILLIONS OF FREE VECTOR ICONS --><svg id="Layer_1" enable-background="new 0 0 66 66" viewBox="0 0 66 66" xmlns="http://www.w3.org/2000/svg"><g><path d="m63.3 60.2-6.5-10.7c1.8-.5 3.6-1.4 5.2-2.5l.5-.3-3.1-18.2v-11.6c-.4-.2-3-2.4-7-2.4-3.8 0-6.7 2.2-7 2.4v8.8c1.7-.4 4-1.3 5-2.8.8-1.1.6-2.2.6-2.2-.4-1.5.4-3.1 1.9-3.5s3.1.4 3.5 1.9c.1.4 1 3.7-1.4 7.1-1.8 2.5-4.8 4.2-9.1 5.2l-2.5 14.8c1.3.9 2.6 1.5 3.5 1.9-1 19.1-.6 12.5-.7 14-.1 1.6 1.1 2.9 2.7 3 1.1.2 2.9-.9 3-2.7 0-.1.7-13.3.7-13.2h.9c0 .1-.3 5.6-.3 5.3l5.3 8.7c.8 1.3 2.5 1.8 3.9.9 1.3-.9 1.7-2.6.9-3.9z"></path><path d="m29.7 53.3c-.6 0-1.1.1-1.6.3l-6.9-7-1.3 1.4 6.5 6.6c-.9.8-1.4 2-1.4 3.3 0 2.6 2.1 4.6 4.6 4.6 2.6 0 4.6-2.1 4.6-4.6.2-2.5-1.9-4.6-4.5-4.6zm0 7.4c-1.5 0-2.8-1.2-2.8-2.8 0-1.5 1.2-2.8 2.8-2.8 1.5 0 2.8 1.2 2.8 2.8 0 1.5-1.3 2.8-2.8 2.8z"></path><path d="m17.3 45.3 1.2-1.4-2.9-2.9h-2.6z"></path><path d="m18.9 16.7h-3.3c-7.3 0-13.2 5.9-13.2 13.2v2.4h16.6v-15.6z"></path><path d="m21.9 40 5.9-6.8h-25.5v5.5c0 .7.6 1.2 1.2 1.2 14.1.1 9.7.1 18.4.1z"></path><path d="m34 38.8v-5.5h-1.2l-5.9 6.7h5.9c.6 0 1.2-.5 1.2-1.2z"></path><circle cx="52.4" cy="6.9" r="5.9"></circle><path d="m32.3 29.4c-3.8 4.3-.3.3-20.7 23.9-2.9-.5-5.5 1.7-5.5 4.6 0 2.6 2.1 4.6 4.6 4.6 2.6 0 4.6-2.1 4.6-4.6 0-1.2-.5-2.4-1.3-3.2-.2-.2-.5-.4-.7-.6.2-.1 12.4-14.2 12.3-14.1.1-.1 7.8-9.1 7.8-9l3.3-.9c-.2-.7-.1-1.4.1-2zm-21.6 31.3c-1.5 0-2.8-1.2-2.8-2.8 0-3.7 5.5-3.6 5.5 0 .1 1.5-1.1 2.8-2.7 2.8z"></path><path d="m54.2 25.7c2.1-3 1.4-6 1.3-6.3-.3-1-1.3-1.6-2.3-1.3s-1.6 1.3-1.3 2.3c0 0 .4 1.5-.7 3-2.2 3-7.9 3.8-11.7 4-1.5.3-2 1-1.9 2s.8 1.8 1.9 1.8h.1c5-.2 11.5-1.3 14.6-5.5z"></path></g></svg>