<svg aria-hidden="true" style="position: absolute; width: 0; height: 0; overflow: hidden;" version="1.1" xmlns="http://www.w3.org/2000/svg" xmlns:xlink="http://www.w3.org/1999/xlink">
<defs>
<symbol id="icon-Arrow16" viewBox="0 0 32 32">
<path fill="#fbfbfb" style="fill: var(--color1, #fbfbfb)" d="M27.118 3.149c-0.145-1.029-1.096-1.747-2.126-1.602l-16.776 2.358c-1.029 0.145-1.747 1.097-1.602 2.126s1.097 1.747 2.126 1.602l14.912-2.096 2.096 14.912c0.145 1.029 1.097 1.747 2.126 1.602s1.747-1.096 1.602-2.126l-2.358-16.776zM6.367 31.604l20.391-27.060-3.007-2.266-20.391 27.060 3.007 2.266z"></path>
</symbol>
<symbol id="icon-Arrow-horiz" viewBox="0 0 32 32">
<path fill="#fbfbfb" style="fill: var(--color1, #fbfbfb)" d="M31.549 16.86c0.614-0.636 0.596-1.649-0.040-2.262l-10.359-10.003c-0.636-0.614-1.648-0.596-2.262 0.040s-0.596 1.649 0.040 2.262l9.208 8.892-8.892 9.208c-0.614 0.636-0.596 1.648 0.040 2.262s1.648 0.596 2.262-0.040l10.003-10.358zM1.63 17.851l28.796-0.503-0.056-3.2-28.796 0.503 0.056 3.199z"></path>
</symbol>
<symbol id="icon-check" viewBox="0 0 40 32">
<path fill="#fbfbfb" style="fill: var(--color1, #fbfbfb)" d="M5 11l-5 5 15 15 25-25-5-5-20 20-10-10z"></path>
</symbol>
<symbol id="icon-chevron-down" viewBox="0 0 32 32">
<path fill="none" stroke="#fbfbfb" style="stroke: var(--color1, #fbfbfb)" stroke-linejoin="round" stroke-linecap="round" stroke-miterlimit="4" stroke-width="3.2" d="M8 12l8 8 8-8"></path>
</symbol>
<symbol id="icon-circle" viewBox="0 0 32 32">
<path fill="#f03f3b" style="fill: var(--color2, #f03f3b)" opacity="0.2" d="M16 0c8.837 0 16 7.163 16 16s-7.163 16-16 16c-8.837 0-16-7.163-16-16s7.163-16 16-16z"></path>
</symbol>
<symbol id="icon-clock" viewBox="0 0 32 32">
<path stroke-linejoin="round" stroke-linecap="round" stroke-miterlimit="4" stroke-width="2.4" d="M16 29.333c7.364 0 13.333-5.97 13.333-13.333s-5.969-13.333-13.333-13.333c-7.364 0-13.333 5.97-13.333 13.333s5.97 13.333 13.333 13.333z"></path>
<path stroke-linejoin="round" stroke-linecap="round" stroke-miterlimit="4" stroke-width="2.4" d="M16 8v8l5.333 2.667"></path>
</symbol>
<symbol id="icon-eye" viewBox="0 0 32 32">
<path stroke-linejoin="round" stroke-linecap="round" stroke-miterlimit="4" stroke-width="3.2" d="M1.333 16c0 0 5.333-10.667 14.667-10.667s14.667 10.667 14.667 10.667c0 0-5.333 10.667-14.667 10.667s-14.667-10.667-14.667-10.667z"></path>
<path stroke-linejoin="round" stroke-linecap="round" stroke-miterlimit="4" stroke-width="3.2" d="M16 20c2.209 0 4-1.791 4-4s-1.791-4-4-4c-2.209 0-4 1.791-4 4s1.791 4 4 4z"></path>
</symbol>
<symbol id="icon-eye-off" viewBox="0 0 32 32">
<path stroke-linejoin="round" stroke-linecap="round" stroke-miterlimit="4" stroke-width="3.2" d="M23.92 23.92c-2.279 1.737-5.055 2.7-7.92 2.747-9.333 0-14.667-10.667-14.667-10.667 1.659-3.091 3.959-5.791 6.747-7.92M13.2 5.653c0.918-0.215 1.857-0.322 2.8-0.32 9.333 0 14.667 10.667 14.667 10.667-0.809 1.514-1.775 2.94-2.88 4.253M18.827 18.827c-0.366 0.393-0.808 0.708-1.298 0.927s-1.020 0.336-1.557 0.346-1.071-0.089-1.569-0.291c-0.498-0.201-0.95-0.5-1.33-0.88s-0.679-0.832-0.88-1.33c-0.201-0.498-0.3-1.032-0.29-1.569s0.127-1.067 0.346-1.557 0.534-0.932 0.927-1.298"></path>
<path stroke-linejoin="round" stroke-linecap="round" stroke-miterlimit="4" stroke-width="3.2" d="M1.333 1.333l29.333 29.333"></path>
</symbol>
<symbol id="icon-heart" viewBox="0 0 32 32">
<path stroke-linejoin="round" stroke-linecap="round" stroke-miterlimit="4" stroke-width="2.4615" d="M27.787 6.147c-0.681-0.681-1.49-1.222-2.38-1.591s-1.844-0.559-2.807-0.559c-0.963 0-1.917 0.19-2.807 0.559s-1.698 0.909-2.379 1.591l-1.413 1.413-1.413-1.413c-1.376-1.376-3.241-2.148-5.187-2.148s-3.811 0.773-5.187 2.148c-1.376 1.376-2.148 3.241-2.148 5.187s0.773 3.811 2.148 5.187l11.787 11.787 11.787-11.787c0.681-0.681 1.222-1.49 1.591-2.38s0.559-1.844 0.559-2.807-0.19-1.917-0.559-2.807c-0.369-0.89-0.909-1.699-1.591-2.38z"></path>
</symbol>
<symbol id="icon-heart-fill" viewBox="0 0 32 32">
<path fill="#f03f3b" style="fill: var(--color2, #f03f3b); stroke: var(--color2, #f03f3b)" stroke="#f03f3b" stroke-linejoin="round" stroke-linecap="round" stroke-miterlimit="4" stroke-width="2.4615" d="M27.787 6.147c-0.681-0.681-1.49-1.222-2.38-1.591s-1.844-0.559-2.807-0.559c-0.963 0-1.917 0.19-2.807 0.559s-1.698 0.909-2.379 1.591l-1.413 1.413-1.413-1.413c-1.376-1.376-3.241-2.148-5.187-2.148s-3.811 0.773-5.187 2.148c-1.376 1.376-2.148 3.241-2.148 5.187s0.773 3.811 2.148 5.187l11.787 11.787 11.787-11.787c0.681-0.681 1.222-1.49 1.591-2.38s0.559-1.844 0.559-2.807-0.19-1.917-0.559-2.807c-0.369-0.89-0.909-1.699-1.591-2.38z"></path>
</symbol>
<symbol id="icon-map-pin" viewBox="0 0 32 32">
<path stroke-linejoin="round" stroke-linecap="round" stroke-miterlimit="4" stroke-width="3" d="M28 13.333c0 9.333-12 17.333-12 17.333s-12-8-12-17.333c0-3.183 1.264-6.235 3.515-8.485s5.303-3.515 8.485-3.515c3.183 0 6.235 1.264 8.485 3.515s3.515 5.303 3.515 8.485z"></path>
<path stroke-linejoin="round" stroke-linecap="round" stroke-miterlimit="4" stroke-width="3" d="M16 17.333c2.209 0 4-1.791 4-4s-1.791-4-4-4c-2.209 0-4 1.791-4 4s1.791 4 4 4z"></path>
</symbol>
<symbol id="icon-Star-2" viewBox="0 0 32 32">
<path fill="#ffc531" style="fill: var(--color3, #ffc531); stroke: var(--color3, #ffc531)" stroke="#ffc531" stroke-linejoin="miter" stroke-linecap="butt" stroke-miterlimit="4" stroke-width="2.4" d="M12.4 10.394l3.6-6.822 3.6 6.822c0.318 0.603 0.899 1.025 1.571 1.141l7.601 1.315-5.376 5.532c-0.475 0.489-0.697 1.171-0.6 1.846l1.098 7.635-6.922-3.404c-0.612-0.301-1.329-0.301-1.941 0l-6.922 3.404 1.098-7.635c0.097-0.675-0.125-1.357-0.6-1.846l-5.376-5.532 7.601-1.315c0.672-0.116 1.252-0.538 1.571-1.141z"></path>
</symbol>
<symbol id="icon-user" viewBox="0 0 32 32">
<path fill="#fbfbfb" style="fill: var(--color1, #fbfbfb)" d="M8 0h16c4.418 0 8 3.582 8 8v16c0 4.418-3.582 8-8 8h-16c-4.418 0-8-3.582-8-8v-16c0-4.418 3.582-8 8-8z"></path>
<path fill="#f03f3b" style="fill: var(--color2, #f03f3b)" d="M16 9.6c0.849 0 1.663 0.337 2.263 0.937s0.937 1.414 0.937 2.263-0.337 1.663-0.937 2.263c-0.6 0.6-1.414 0.937-2.263 0.937s-1.663-0.337-2.263-0.937c-0.6-0.6-0.937-1.414-0.937-2.263s0.337-1.663 0.937-2.263c0.6-0.6 1.414-0.937 2.263-0.937zM16 17.6c3.536 0 6.4 1.432 6.4 3.2v1.6h-12.8v-1.6c0-1.768 2.864-3.2 6.4-3.2z"></path>
</symbol>
</defs>
</svg>
